<mxfile host="app.diagrams.net" modified="2024-03-13T00:38:29.141Z" agent="Mozilla/5.0 (Windows NT 10.0; Win64; x64) AppleWebKit/537.36 (KHTML, like Gecko) Chrome/120.0.0.0 Safari/537.36" version="24.0.5" etag="4yTRhiE3_p2rt66ZlXPV" type="github">
  <diagram name="第 1 页" id="ZwmU2qYgS8BXwof2TAbO">
    <mxGraphModel>
      <root>
        <mxCell id="0" />
        <mxCell id="1" parent="0" />
      </root>
    </mxGraphModel>
  </diagram>
</mxfile>
